# Blender v2.91.2 OBJ File: 'final_scene.blend'
# www.blender.org
mtllib kniha__.mtl
o Cylinder.002_Cylinder.004
v 0.095333 3.436142 0.452483
v 0.099327 3.476236 0.448428
v 0.598011 3.476236 0.939618
v 0.104176 3.494350 0.443505
v 0.110701 3.510226 0.436880
v 0.609385 3.510226 0.928071
v 0.118652 3.523256 0.428808
v 0.636250 3.538900 0.900795
v 0.147803 3.540913 0.399212
v 0.147803 3.331370 0.399212
v 0.127724 3.339346 0.419598
v 0.118652 3.349028 0.428808
v 0.110701 3.362057 0.436880
v 0.104176 3.377934 0.443505
v 0.099327 3.396048 0.448428
v 0.096341 3.415702 0.451459
v 0.096328 3.456582 0.451446
v 0.127710 3.532938 0.419585
v 0.137553 3.538900 0.409591
v 0.137553 3.333384 0.409592
v 0.095306 3.436142 0.452455
v 0.594013 3.436142 0.943669
v 0.106402 3.452575 0.441190
v 0.595021 3.456582 0.942645
v 0.104148 3.494350 0.443478
v 0.110674 3.510226 0.436853
v 0.626403 3.532938 0.910784
v 0.646483 3.540913 0.890399
v 0.147775 3.331370 0.399185
v 0.646483 3.331370 0.890399
v 0.636246 3.333384 0.900791
v 0.127696 3.339346 0.419571
v 0.609381 3.362057 0.928067
v 0.602856 3.377934 0.934691
v 0.099300 3.396048 0.448400
v 0.595021 3.415702 0.942645
v 0.099300 3.476236 0.448400
v 0.602856 3.494350 0.934691
v 0.118625 3.523256 0.428780
v 0.617332 3.523256 0.919994
v 0.147775 3.540913 0.399185
v 0.626403 3.339346 0.910784
v 0.118625 3.349028 0.428780
v 0.617332 3.349028 0.919994
v 0.110673 3.362057 0.436853
v 0.104148 3.377934 0.443478
v 0.598007 3.396048 0.939614
v 0.096314 3.415702 0.451432
v 0.105591 3.436142 0.442013
v 0.604299 3.436142 0.933226
v 0.605109 3.452575 0.932403
v 0.108802 3.468376 0.438753
v 0.607510 3.468376 0.929966
v 0.112701 3.482939 0.434795
v 0.611408 3.482939 0.926009
v 0.117947 3.495703 0.429469
v 0.616654 3.495703 0.920682
v 0.124339 3.506179 0.422979
v 0.623047 3.506179 0.914193
v 0.131632 3.513963 0.415574
v 0.630340 3.513963 0.906788
v 0.139546 3.518756 0.407540
v 0.638253 3.518756 0.898754
v 0.147775 3.520375 0.399185
v 0.646483 3.520375 0.890399
v 0.147775 3.351909 0.399185
v 0.646483 3.351909 0.890399
v 0.139546 3.353527 0.407540
v 0.638253 3.353527 0.898754
v 0.131632 3.358321 0.415575
v 0.630340 3.358321 0.906788
v 0.124339 3.366105 0.422979
v 0.623046 3.366105 0.914193
v 0.117947 3.376580 0.429469
v 0.616654 3.376580 0.920683
v 0.112701 3.389344 0.434795
v 0.611408 3.389344 0.926009
v 0.108802 3.403907 0.438753
v 0.607510 3.403907 0.929966
v 0.106402 3.419709 0.441190
v 0.605109 3.419709 0.932403
v 0.115749 3.452575 0.450397
v 0.157123 3.436142 0.408392
v 0.114939 3.436142 0.451220
v 0.595943 3.436142 0.924996
v 0.638127 3.436142 0.882169
v 0.596754 3.452575 0.924174
v 0.118150 3.468376 0.447960
v 0.599154 3.468376 0.921736
v 0.122048 3.482939 0.444002
v 0.603053 3.482939 0.917779
v 0.127294 3.495703 0.438676
v 0.608299 3.495703 0.912453
v 0.133687 3.506179 0.432186
v 0.614691 3.506179 0.905963
v 0.140980 3.513963 0.424782
v 0.621984 3.513963 0.898558
v 0.148893 3.518756 0.416748
v 0.629898 3.518756 0.890524
v 0.157123 3.520375 0.408392
v 0.638127 3.520375 0.882169
v 0.157123 3.351909 0.408392
v 0.638127 3.351909 0.882169
v 0.148893 3.353527 0.416748
v 0.629897 3.353527 0.890524
v 0.140980 3.358321 0.424782
v 0.621984 3.358321 0.898558
v 0.133687 3.366105 0.432186
v 0.614691 3.366105 0.905963
v 0.127294 3.376580 0.438676
v 0.608299 3.376580 0.912453
v 0.122048 3.389344 0.444002
v 0.603052 3.389344 0.917779
v 0.118150 3.403907 0.447960
v 0.599154 3.403907 0.921736
v 0.115749 3.419709 0.450397
v 0.596754 3.419709 0.924174
v 0.994695 3.520374 0.520162
v 0.513691 3.520374 0.046385
v 0.513690 3.351908 0.046385
v 0.994695 3.351908 0.520162
v 1.014684 3.540913 0.516589
v 0.516000 3.540913 0.025398
v 1.014680 3.351908 0.516585
v 1.014680 3.331370 0.516585
v 0.515972 3.331370 0.025371
v 0.515972 3.351908 0.025371
v 1.014680 3.520374 0.516585
v 0.515972 3.520374 0.025371
v 0.127710 3.532938 0.419585
v 0.137553 3.538900 0.409591
v 0.595021 3.456582 0.942645
v 0.594013 3.436142 0.943669
v 0.104148 3.494350 0.443478
v 0.110674 3.510226 0.436853
v 0.636246 3.333384 0.900791
v 0.646483 3.331370 0.890399
v 0.646483 3.331370 0.890399
v 0.602856 3.377934 0.934691
v 0.609381 3.362057 0.928067
v 0.595021 3.415702 0.942645
v 0.617332 3.349028 0.919994
v 0.626403 3.339346 0.910784
v 0.118625 3.349028 0.428780
v 0.110673 3.362057 0.436853
v 0.104148 3.377934 0.443478
v 0.105591 3.436142 0.442013
v 0.106402 3.452575 0.441190
v 0.605109 3.452575 0.932403
v 0.604299 3.436142 0.933226
v 0.108802 3.468376 0.438753
v 0.607510 3.468376 0.929966
v 0.112701 3.482939 0.434795
v 0.611408 3.482939 0.926009
v 0.117947 3.495703 0.429469
v 0.616654 3.495703 0.920682
v 0.124339 3.506179 0.422979
v 0.623047 3.506179 0.914193
v 0.131632 3.513963 0.415574
v 0.630340 3.513963 0.906788
v 0.139546 3.518756 0.407540
v 0.638253 3.518756 0.898754
v 0.147775 3.520375 0.399185
v 0.147775 3.520375 0.399185
v 0.147775 3.520375 0.399185
v 0.646483 3.520375 0.890399
v 0.646483 3.520375 0.890399
v 0.147775 3.351909 0.399185
v 0.147775 3.351909 0.399185
v 0.139546 3.353527 0.407540
v 0.638253 3.353527 0.898754
v 0.646483 3.351909 0.890399
v 0.646483 3.351909 0.890399
v 0.131632 3.358321 0.415575
v 0.630340 3.358321 0.906788
v 0.124339 3.366105 0.422979
v 0.623046 3.366105 0.914193
v 0.117947 3.376580 0.429469
v 0.616654 3.376580 0.920683
v 0.112701 3.389344 0.434795
v 0.611408 3.389344 0.926009
v 0.108802 3.403907 0.438753
v 0.607510 3.403907 0.929966
v 0.106402 3.419709 0.441190
v 0.605109 3.419709 0.932403
v 0.114939 3.436142 0.451220
v 0.115749 3.452575 0.450397
v 0.596754 3.452575 0.924174
v 0.595943 3.436142 0.924996
v 0.118150 3.468376 0.447960
v 0.599154 3.468376 0.921736
v 0.122048 3.482939 0.444002
v 0.603053 3.482939 0.917779
v 0.127294 3.495703 0.438676
v 0.608299 3.495703 0.912453
v 0.133687 3.506179 0.432186
v 0.614691 3.506179 0.905963
v 0.140980 3.513963 0.424782
v 0.621984 3.513963 0.898558
v 0.148893 3.518756 0.416748
v 0.629898 3.518756 0.890524
v 0.157123 3.520375 0.408392
v 0.157123 3.520375 0.408392
v 0.157123 3.520375 0.408392
v 0.157123 3.520375 0.408392
v 0.638127 3.520375 0.882169
v 0.638127 3.520375 0.882169
v 0.638127 3.520375 0.882169
v 0.638127 3.520375 0.882169
v 0.157123 3.351909 0.408392
v 0.157123 3.351909 0.408392
v 0.157123 3.351909 0.408392
v 0.157123 3.351909 0.408392
v 0.148893 3.353527 0.416748
v 0.629897 3.353527 0.890524
v 0.638127 3.351909 0.882169
v 0.638127 3.351909 0.882169
v 0.638127 3.351909 0.882169
v 0.638127 3.351909 0.882169
v 0.140980 3.358321 0.424782
v 0.621984 3.358321 0.898558
v 0.133687 3.366105 0.432186
v 0.614691 3.366105 0.905963
v 0.127294 3.376580 0.438676
v 0.608299 3.376580 0.912453
v 0.122048 3.389344 0.444002
v 0.603052 3.389344 0.917779
v 0.118150 3.403907 0.447960
v 0.599154 3.403907 0.921736
v 0.115749 3.419709 0.450397
v 0.596754 3.419709 0.924174
v 0.994695 3.520374 0.520162
v 0.994695 3.520374 0.520162
v 0.513691 3.520374 0.046385
v 0.513691 3.520374 0.046385
v 0.513690 3.351908 0.046385
v 0.513690 3.351908 0.046385
v 0.994695 3.351908 0.520162
v 0.994695 3.351908 0.520162
v 1.014684 3.540913 0.516589
v 1.014684 3.540913 0.516589
v 0.516000 3.540913 0.025398
v 0.516000 3.540913 0.025398
v 1.014680 3.351908 0.516585
v 1.014680 3.351908 0.516585
v 1.014680 3.331370 0.516585
v 1.014680 3.331370 0.516585
v 0.515972 3.331370 0.025371
v 0.515972 3.331370 0.025371
v 0.515972 3.351908 0.025371
v 0.515972 3.351908 0.025371
v 1.014680 3.520374 0.516585
v 1.014680 3.520374 0.516585
v 0.515972 3.520374 0.025371
v 0.515972 3.520374 0.025371
v 0.147803 3.540913 0.399212
v 0.598011 3.476236 0.939618
v 0.602856 3.494350 0.934691
v 0.609385 3.510226 0.928071
v 0.617332 3.523256 0.919994
v 0.626403 3.532938 0.910784
v 0.636250 3.538900 0.900795
v 0.646483 3.540913 0.890399
v 0.598007 3.396048 0.939614
v 0.095306 3.436142 0.452455
v 0.096328 3.456582 0.451446
v 0.099300 3.476236 0.448400
v 0.118625 3.523256 0.428780
v 0.147775 3.540913 0.399185
v 0.147775 3.331370 0.399185
v 0.147775 3.331370 0.399185
v 0.137553 3.333384 0.409592
v 0.127696 3.339346 0.419571
v 0.099300 3.396048 0.448400
v 0.096314 3.415702 0.451432
vt 0.144808 0.508082
vt 0.130614 0.508082
vt 0.130614 0.000000
vt 0.144808 0.000000
vt 0.688121 0.647749
vt 0.688121 0.508082
vt 0.571701 0.508082
vt 0.571701 0.647749
vt 0.287225 0.698355
vt 0.403645 0.698355
vt 0.403645 0.558687
vt 0.287225 0.558687
vt 0.866456 0.000000
vt 0.866456 0.492034
vt 0.982877 0.492034
vt 0.982877 0.000000
vt 0.982877 0.984068
vt 0.982877 0.492034
vt 0.866456 0.492034
vt 0.866456 0.984068
vt 0.571701 1.000000
vt 0.571701 0.508082
vt 0.432033 0.508082
vt 0.432033 1.000000
vt 0.721649 0.507962
vt 0.721649 0.999996
vt 0.861316 0.999996
vt 0.861316 0.507962
vt 0.432033 0.000000
vt 0.576841 0.000000
vt 0.576841 0.508082
vt 0.432033 0.508082
vt 0.721648 0.000000
vt 0.866456 0.000000
vt 0.866456 0.507962
vt 0.721648 0.507962
vt 0.982877 0.000000
vt 0.997070 0.000000
vt 0.997070 0.508082
vt 0.982877 0.508082
vt 0.576841 0.000000
vt 0.721649 0.000000
vt 0.721649 0.508082
vt 0.576841 0.508082
vt 0.155780 0.582410
vt 0.144808 0.582410
vt 0.144808 0.582402
vt 0.155780 0.582402
vt 0.051197 0.725286
vt 0.051197 0.580487
vt 0.065322 0.580487
vt 0.065322 0.725290
vt 0.078905 0.580486
vt 0.078905 0.725286
vt 0.091423 0.580487
vt 0.091423 0.725286
vt 0.102394 0.580486
vt 0.102394 0.725286
vt 0.432025 0.558687
vt 0.287225 0.558687
vt 0.287226 0.547914
vt 0.432025 0.547914
vt 0.168297 0.582410
vt 0.168297 0.582402
vt 0.287226 0.535544
vt 0.432029 0.535544
vt 0.432033 0.547914
vt 0.287225 0.522054
vt 0.432029 0.522054
vt 0.051197 0.725294
vt 0.287226 0.507962
vt 0.432025 0.507962
vt 0.037072 0.725286
vt 0.037072 0.725294
vt 0.181880 0.582406
vt 0.432033 0.558687
vt 0.023489 0.725286
vt 0.023489 0.725294
vt 0.196005 0.582410
vt 0.196005 0.582402
vt 0.102394 0.725294
vt 0.091423 0.725294
vt 0.010972 0.725286
vt 0.010972 0.725294
vt 0.196005 0.727210
vt 0.181880 0.727210
vt 0.078905 0.725294
vt 0.168297 0.727210
vt 0.000000 0.725286
vt 0.000000 0.725294
vt 0.432033 0.507962
vt 0.155780 0.727210
vt 0.144808 0.727210
vt 0.000000 0.580487
vt 0.010972 0.580487
vt 0.023489 0.580487
vt 0.037072 0.580487
vt 0.227281 0.000609
vt 0.241071 0.003972
vt 0.236372 0.017365
vt 0.225286 0.014661
vt 0.154769 0.035455
vt 0.163153 0.024003
vt 0.173729 0.033469
vt 0.166988 0.042676
vt 0.100111 0.574974
vt 0.086529 0.579094
vt 0.083760 0.565174
vt 0.094680 0.561861
vt 0.021207 0.559279
vt 0.012202 0.548307
vt 0.024004 0.540422
vt 0.031243 0.549243
vt 0.213101 0.000000
vt 0.213885 0.014172
vt 0.143416 0.522207
vt 0.129496 0.519438
vt 0.148780 0.048323
vt 0.162173 0.053022
vt 0.072404 0.580486
vt 0.072404 0.566292
vt 0.282360 0.040932
vt 0.287225 0.054266
vt 0.273478 0.057800
vt 0.269567 0.047080
vt 0.005511 0.535789
vt 0.018624 0.530358
vt 0.139296 0.535789
vt 0.126183 0.530358
vt 0.145416 0.062113
vt 0.159469 0.064108
vt 0.199074 0.002170
vt 0.202608 0.015916
vt 0.274988 0.028803
vt 0.263640 0.037329
vt 0.001391 0.522207
vt 0.015312 0.519438
vt 0.132605 0.548307
vt 0.120804 0.540422
vt 0.144808 0.076293
vt 0.158979 0.075509
vt 0.265391 0.018346
vt 0.255925 0.028921
vt 0.000000 0.508082
vt 0.014193 0.508082
vt 0.058279 0.579094
vt 0.061048 0.565174
vt 0.185740 0.007034
vt 0.191888 0.019826
vt 0.123601 0.559279
vt 0.113565 0.549243
vt 0.146977 0.090320
vt 0.160723 0.086786
vt 0.044696 0.574974
vt 0.050128 0.561861
vt 0.253939 0.009961
vt 0.246717 0.022180
vt 0.173611 0.014406
vt 0.182136 0.025753
vt 0.112629 0.568283
vt 0.104744 0.556482
vt 0.032178 0.568283
vt 0.040064 0.556482
vt 0.420553 0.567508
vt 0.420553 0.577572
vt 0.417839 0.577572
vt 0.417839 0.567508
vt 0.420553 0.632188
vt 0.420553 0.622124
vt 0.422979 0.622124
vt 0.422979 0.632188
vt 0.420553 0.567508
vt 0.420553 0.558687
vt 0.422979 0.558687
vt 0.422979 0.567508
vt 0.420553 0.622124
vt 0.420553 0.632188
vt 0.417839 0.632188
vt 0.417839 0.622124
vt 0.420553 0.558687
vt 0.417839 0.558687
vt 0.420553 0.611205
vt 0.422979 0.611205
vt 0.428408 0.600209
vt 0.428408 0.591233
vt 0.430834 0.591233
vt 0.430834 0.600209
vt 0.420553 0.611205
vt 0.417839 0.611205
vt 0.102394 0.621647
vt 0.102394 0.610291
vt 0.104821 0.610291
vt 0.104821 0.621647
vt 0.425693 0.591233
vt 0.425693 0.600209
vt 0.422979 0.600209
vt 0.422979 0.591233
vt 0.420553 0.599848
vt 0.422979 0.599848
vt 0.428408 0.588492
vt 0.428408 0.599849
vt 0.425693 0.599849
vt 0.425693 0.588492
vt 0.428408 0.581054
vt 0.430834 0.581054
vt 0.102394 0.599370
vt 0.104821 0.599370
vt 0.425693 0.581054
vt 0.422979 0.581054
vt 0.420553 0.599848
vt 0.417839 0.599848
vt 0.428408 0.577572
vt 0.425693 0.577572
vt 0.428408 0.570065
vt 0.430834 0.570065
vt 0.102394 0.589307
vt 0.104821 0.589307
vt 0.425693 0.570065
vt 0.422979 0.570065
vt 0.428408 0.567509
vt 0.425693 0.567509
vt 0.428408 0.558687
vt 0.430834 0.558687
vt 0.420553 0.588492
vt 0.422979 0.588492
vt 0.420553 0.588492
vt 0.417839 0.588492
vt 0.102394 0.580486
vt 0.104821 0.580486
vt 0.425693 0.558687
vt 0.422979 0.558687
vt 0.420553 0.577572
vt 0.422979 0.577572
vt 0.428408 0.558688
vt 0.425693 0.558688
vt 0.420553 0.641009
vt 0.422979 0.641009
vt 0.420553 0.641009
vt 0.417839 0.641009
vt 0.254215 0.640612
vt 0.196005 0.640612
vt 0.197124 0.629256
vt 0.629911 0.705959
vt 0.572819 0.717316
vt 0.571701 0.705959
vt 0.200436 0.618336
vt 0.576131 0.728235
vt 0.205815 0.608272
vt 0.581511 0.738299
vt 0.213054 0.599451
vt 0.588750 0.747120
vt 0.221875 0.592212
vt 0.597571 0.754359
vt 0.231939 0.586833
vt 0.607635 0.759739
vt 0.242859 0.583521
vt 0.618555 0.763051
vt 0.254215 0.582402
vt 0.629911 0.764170
vt 0.254215 0.698823
vt 0.242859 0.697704
vt 0.618555 0.648867
vt 0.629911 0.647749
vt 0.231939 0.694392
vt 0.607635 0.652180
vt 0.221875 0.689013
vt 0.597571 0.657559
vt 0.213054 0.681773
vt 0.588750 0.664798
vt 0.205815 0.672952
vt 0.581511 0.673619
vt 0.200436 0.662889
vt 0.576131 0.683683
vt 0.197124 0.651969
vt 0.572819 0.694603
vt 0.287225 0.000000
vt 0.432025 0.000000
vt 0.417839 0.703495
vt 0.403645 0.703495
vt 0.403645 0.558687
vt 0.417839 0.558687
vt 0.688121 0.652889
vt 0.688121 0.508082
vt 0.702315 0.508090
vt 0.702315 0.652891
vt 0.000000 0.000000
vt 0.014193 0.000000
vt 0.287225 0.578868
vt 0.273478 0.582402
vn 0.7124 -0.0001 0.7017
vn -0.7017 0.0000 0.7124
vn 0.7017 -0.0000 -0.7124
vn 0.7124 0.0000 0.7017
vn -0.7124 0.0000 -0.7017
vn -0.0000 -1.0000 0.0000
vn 0.0000 1.0000 -0.0000
vn -0.7124 0.0019 -0.7017
vn -0.4777 -0.7323 0.4853
vn -0.5700 -0.5832 0.5787
vn -0.5701 -0.5831 0.5788
vn -0.4776 -0.7323 0.4855
vn -0.7021 -0.0000 0.7121
vn -0.6947 0.1412 0.7053
vn -0.6727 0.2848 0.6829
vn -0.6726 0.2850 0.6829
vn -0.6327 0.4324 0.6424
vn -0.6326 0.4325 0.6425
vn -0.5700 0.5833 0.5787
vn -0.5698 0.5833 0.5789
vn -0.4778 0.7324 0.4851
vn -0.4775 0.7325 0.4851
vn -0.3501 -0.8668 0.3551
vn -0.3501 -0.8669 0.3548
vn -0.3501 0.8666 0.3555
vn -0.3502 0.8666 0.3555
vn -0.4773 0.7326 0.4852
vn -0.1869 0.9639 0.1897
vn -0.1868 0.9639 0.1897
vn -0.7024 -0.0001 0.7118
vn -0.0481 0.9976 0.0488
vn -0.0641 0.9957 0.0676
vn -0.6948 -0.1412 0.7052
vn -0.1869 -0.9639 0.1897
vn -0.5696 0.5833 0.5790
vn -0.6729 -0.2850 0.6826
vn -0.6732 -0.2852 0.6823
vn -0.0961 -0.9909 0.0943
vn -0.0963 -0.9912 0.0912
vn -0.6324 0.4326 0.6426
vn -0.6331 -0.4325 0.6419
vn -0.6335 -0.4327 0.6415
vn -0.0959 -0.9906 0.0974
vn -0.6725 0.2852 0.6829
vn -0.3501 -0.8666 0.3555
vn -0.0959 0.9898 0.1049
vn -0.4778 -0.7324 0.4851
vn -0.5700 -0.5833 0.5787
vn -0.6328 -0.4324 0.6424
vn -0.6727 -0.2848 0.6829
vn -0.6947 -0.1412 0.7053
vn -0.7127 -0.0002 -0.7015
vn -0.7128 -0.0002 -0.7014
vn 0.7126 -0.0000 0.7016
vn 0.7125 -0.0001 0.7017
vn 0.7126 -0.0001 0.7016
vn -0.7130 0.0001 -0.7012
vn -0.7129 0.0001 -0.7012
vn 0.7125 -0.0002 0.7017
vn -0.7129 0.0007 -0.7013
vn -0.7130 0.0004 -0.7012
vn -0.7128 0.0007 -0.7013
vn 0.7124 -0.0001 0.7018
vn -0.7122 -0.0004 -0.7019
vn -0.7123 -0.0003 -0.7019
vn -0.7127 0.0003 -0.7015
vn -0.7125 0.0008 -0.7017
vn -0.7124 0.0008 -0.7018
vn 0.7125 -0.0000 0.7017
vn -0.7126 -0.0005 -0.7016
vn -0.7125 -0.0005 -0.7017
vn -0.7123 0.0004 -0.7019
vn -0.7123 0.0003 -0.7018
vn 0.7125 -0.0001 0.7016
vn -0.7127 -0.0002 -0.7014
vn 0.6328 0.4324 -0.6424
vn 0.6727 0.2848 -0.6829
vn 0.6327 -0.4324 -0.6424
vn 0.6727 -0.2848 -0.6829
vn 0.5700 0.5833 -0.5787
vn 0.6947 -0.1412 -0.7053
vn 0.4778 0.7324 -0.4851
vn 0.0959 -0.9906 -0.0974
vn 0.1869 -0.9639 -0.1897
vn 0.3501 0.8666 -0.3555
vn 0.3501 -0.8666 -0.3555
vn 0.1869 0.9639 -0.1897
vn 0.4778 -0.7324 -0.4851
vn 0.0959 0.9906 -0.0974
vn 0.6947 0.1412 -0.7053
vn 0.5700 -0.5833 -0.5787
usemtl final
s off
f 28/1/1 167/2/1 253/3/1 241/4/1
f 208/5/2 204/6/2 212/7/2 218/8/2
f 232/9/3 238/10/3 236/11/3 234/12/3
f 219/13/4 239/14/4 233/15/4 209/16/4
f 205/17/5 235/18/5 237/19/5 213/20/5
f 102/21/6 120/22/6 121/23/6 103/24/6
f 101/25/7 118/26/7 119/27/7 100/28/7
f 65/29/6 165/30/6 255/31/6 128/32/6
f 66/33/7 67/34/7 124/35/7 251/36/7
f 64/37/8 256/38/8 123/39/8 129/40/8
f 30/41/6 29/42/6 126/43/6 125/44/6
s 1
f 12/45/9 13/46/10 45/47/11 43/48/12
f 1/49/13 133/50/2 132/51/14 266/52/14
f 266/52/14 132/51/14 257/53/15 2/54/16
f 2/54/16 257/53/15 38/55/17 4/56/18
f 4/56/18 38/55/17 259/57/19 5/58/20
f 5/59/20 259/60/19 40/61/21 7/62/22
f 11/63/23 12/45/9 43/48/12 273/64/24
f 7/62/22 40/61/21 261/65/25 130/66/26
f 7/62/22 130/66/26 39/67/27
f 130/66/26 261/65/25 262/68/28 131/69/29
f 1/49/13 266/52/14 265/70/30
f 131/69/29 262/68/28 263/71/31 9/72/32
f 16/73/33 1/49/13 265/70/30 48/74/33
f 272/75/34 11/63/23 273/64/24
f 5/59/20 7/62/22 39/67/27 135/76/35
f 15/77/36 16/73/33 48/74/33 274/78/37
f 10/79/38 272/75/34 270/80/39
f 4/56/18 5/58/20 135/81/35 134/82/40
f 14/83/41 15/77/36 274/78/37 46/84/42
f 10/79/38 137/85/43 136/86/34 272/75/34
f 2/54/16 4/56/18 134/82/40 37/87/44
f 272/75/34 136/86/34 42/88/45 11/63/23
f 13/89/10 14/83/41 46/84/42 45/90/11
f 131/69/29 9/72/32 41/91/46
f 11/63/23 42/88/45 44/92/47 12/45/9
f 12/45/9 44/92/47 140/93/48 13/46/10
f 13/89/10 140/94/48 139/95/49 14/83/41
f 14/83/41 139/95/49 47/96/50 15/77/36
f 15/77/36 47/96/50 141/97/51 16/73/33
f 266/52/14 2/54/16 37/87/44
f 16/73/33 141/97/51 133/50/2 1/49/13
f 267/98/52 25/99/5 153/100/5 151/101/53
f 145/102/5 146/103/5 180/104/5 178/105/5
f 3/106/54 24/107/55 149/108/55 53/109/56
f 33/110/4 142/111/4 177/112/4 75/113/4
f 17/114/57 267/98/52 151/101/53 148/115/58
f 28/1/56 8/116/55 162/117/59 167/2/56
f 144/118/5 145/102/5 178/105/5 176/119/5
f 24/107/55 22/120/4 150/121/4 149/108/55
f 19/122/60 269/123/61 163/124/61 161/125/62
f 142/111/4 143/126/4 175/127/4 177/112/4
f 8/116/55 27/128/63 160/129/63 162/117/59
f 32/130/64 144/118/5 176/119/5 70/131/65
f 21/132/66 17/114/57 148/115/58 147/133/66
f 18/134/67 19/122/60 161/125/62 159/135/68
f 143/126/4 31/136/4 69/137/4 175/127/4
f 27/128/63 260/138/69 158/139/54 160/129/63
f 20/140/70 32/130/64 70/131/65 68/141/71
f 268/142/72 18/134/67 159/135/68 157/143/73
f 31/136/4 138/144/4 173/145/4 69/137/4
f 22/120/4 36/146/4 81/147/4 150/121/4
f 275/148/5 21/132/66 147/133/66 184/149/5
f 260/138/69 6/150/56 156/151/74 158/139/54
f 271/152/52 20/140/70 68/141/71 168/153/75
f 36/146/4 264/154/4 183/155/4 81/147/4
f 26/156/5 268/142/72 157/143/73 155/157/5
f 35/158/5 275/148/5 184/149/5 78/159/5
f 6/150/56 258/160/55 154/161/54 156/151/74
f 264/154/4 34/162/4 77/163/4 183/155/4
f 25/99/5 26/156/5 155/157/5 153/100/5
f 146/103/5 35/158/5 78/159/5 180/104/5
f 258/160/55 3/106/54 53/109/56 154/161/54
f 34/162/4 33/110/4 75/113/4 77/163/4
f 76/164/76 182/165/77 228/166/77 226/167/76
f 55/168/78 152/169/79 191/170/79 193/171/78
f 181/172/76 179/173/80 225/174/80 227/175/76
f 52/176/79 54/177/78 192/178/78 190/179/79
f 74/180/80 76/164/76 226/167/76 224/181/80
f 152/169/79 51/182/81 188/183/81 191/170/79
f 179/184/80 73/185/82 223/186/82 225/187/80
f 23/188/81 52/176/79 190/179/79 187/189/81
f 166/190/83 63/191/84 201/192/84 206/193/83
f 72/194/82 74/195/80 224/196/80 222/197/82
f 51/182/81 50/198/3 189/199/3 188/183/81
f 62/200/84 164/201/83 202/202/83 200/203/84
f 73/185/82 71/204/85 221/205/85 223/186/82
f 63/191/84 61/206/86 199/207/86 201/192/84
f 174/208/85 72/194/82 222/197/82 220/209/85
f 49/210/3 23/188/81 187/189/81 186/211/3
f 60/212/86 62/200/84 200/203/84 198/213/86
f 71/204/85 171/214/87 215/215/87 221/205/85
f 61/206/86 59/216/88 197/217/88 199/207/86
f 170/218/87 174/208/85 220/209/85 214/219/87
f 58/220/88 60/212/86 198/213/86 196/221/88
f 171/214/87 172/222/89 216/223/89 215/215/87
f 50/198/3 185/224/90 231/225/90 189/199/3
f 80/226/90 49/210/3 186/211/3 230/227/90
f 59/216/88 57/228/91 195/229/91 197/217/88
f 169/230/89 170/218/87 214/219/87 210/231/89
f 185/224/90 79/232/77 229/233/77 231/225/90
f 56/234/91 58/220/88 196/221/88 194/235/91
f 182/165/77 80/226/90 230/227/90 228/166/77
f 57/236/91 55/168/78 193/171/78 195/237/91
f 79/232/77 181/172/76 227/175/76 229/233/77
f 54/177/78 56/238/91 194/239/91 192/178/78
f 83/240/5 84/241/5 82/242/5
f 86/243/4 87/244/4 85/245/4
f 83/240/5 82/242/5 88/246/5
f 86/243/4 89/247/4 87/244/4
f 83/240/5 88/246/5 90/248/5
f 86/243/4 91/249/4 89/247/4
f 83/240/5 90/248/5 92/250/5
f 86/243/4 93/251/4 91/249/4
f 83/240/5 92/250/5 94/252/5
f 86/243/4 95/253/4 93/251/4
f 83/240/5 94/252/5 96/254/5
f 86/243/4 97/255/4 95/253/4
f 83/240/5 96/254/5 98/256/5
f 86/243/4 99/257/4 97/255/4
f 83/240/5 98/256/5 203/258/5
f 86/243/4 207/259/4 99/257/4
f 83/240/5 211/260/5 104/261/5
f 86/243/4 105/262/4 217/263/4
f 83/240/5 104/261/5 106/264/5
f 86/243/4 107/265/4 105/262/4
f 83/240/5 106/264/5 108/266/5
f 86/243/4 109/267/4 107/265/4
f 83/240/5 108/266/5 110/268/5
f 86/243/4 111/269/4 109/267/4
f 83/240/5 110/268/5 112/270/5
f 86/243/4 113/271/4 111/269/4
f 83/240/5 112/270/5 114/272/5
f 86/243/4 115/273/4 113/271/4
f 83/240/5 114/272/5 116/274/5
f 86/243/4 117/275/4 115/273/4
f 83/240/5 116/274/5 84/241/5
f 86/243/4 85/245/4 117/275/4
f 9/72/32 263/71/31 240/276/7 242/277/7
f 244/278/3 246/279/3 248/280/3 250/281/3
f 252/282/3 254/283/3 243/284/3 122/285/3
f 173/145/4 138/144/4 247/286/4 245/287/4
f 271/152/52 168/153/75 127/288/5 249/289/5
