# Blender v2.91.2 OBJ File: 'sipka.blend'
# www.blender.org
mtllib sipka__.mtl
o Cube
v -0.211813 0.076506 -0.678625
v -0.211813 -0.076506 -0.678625
v 0.211813 0.076506 -0.678625
v 0.211813 -0.076506 -0.678625
v 0.000000 -0.076506 0.694815
v 0.000000 0.076506 0.694815
v 0.211813 -0.076506 0.224242
v -0.211813 0.076506 0.224242
v 0.211813 0.076506 0.224242
v -0.211813 -0.076506 0.224242
v -0.423626 0.076506 0.224242
v -0.423626 -0.076506 0.224242
v 0.423626 -0.076506 0.224242
v 0.423626 0.076506 0.224242
vt 0.375000 0.175860
vt 0.375000 0.574140
vt 0.375000 0.750000
vt 0.625000 0.175860
vt 0.375000 0.375000
vt 0.375000 0.175860
vt 0.625000 0.574140
vt 0.375000 0.574140
vt 0.625000 0.175860
vt 0.375000 0.000000
vt 0.625000 0.574140
vt 0.625000 0.750000
vt 0.625000 0.375000
vt 0.625000 0.000000
vn 0.0000 -1.0000 -0.0000
vn 0.7432 0.0000 0.6691
vn -0.7432 0.0000 0.6691
vn 1.0000 0.0000 -0.0000
vn -0.0000 0.0000 -1.0000
vn 0.0000 1.0000 0.0000
vn -1.0000 0.0000 0.0000
usemtl Material
s off
f 7/1/1 10/2/1 2/3/1
f 14/4/2 5/5/2 13/6/2
f 5/5/3 11/7/3 12/8/3
f 9/9/4 7/1/4 4/10/4
f 10/2/1 5/5/1 12/8/1
f 10/2/5 11/7/5 8/11/5
f 9/9/5 13/6/5 7/1/5
f 1/12/6 8/11/6 9/9/6
f 10/2/7 8/11/7 1/12/7
f 9/9/6 8/11/6 6/13/6
f 2/3/5 1/12/5 3/14/5
f 7/1/1 2/3/1 4/10/1
f 14/4/2 6/13/2 5/5/2
f 5/5/3 6/13/3 11/7/3
f 9/9/4 4/10/4 3/14/4
f 13/6/1 5/5/1 7/1/1
f 7/1/1 5/5/1 10/2/1
f 10/2/5 12/8/5 11/7/5
f 9/9/5 14/4/5 13/6/5
f 1/12/6 9/9/6 3/14/6
f 10/2/7 1/12/7 2/3/7
f 6/13/6 14/4/6 9/9/6
f 8/11/6 11/7/6 6/13/6
f 2/3/5 3/14/5 4/10/5
