# Blender v2.91.2 OBJ File: 'space_origin.blend'
# www.blender.org
mtllib space_origin.mtl
o Cube_Cube.001
v -0.200000 -0.200000 0.200000
v -0.200000 0.200000 0.200000
v -0.200000 -0.200000 -0.200000
v -0.200000 0.200000 -0.200000
v 0.200000 -0.200000 0.200000
v 0.200000 0.200000 0.200000
v 0.200000 -0.200000 -0.200000
v 0.200000 0.200000 -0.200000
v 0.200000 0.020000 -0.020000
v 0.200000 -0.020000 -0.020000
v 0.200000 -0.020000 0.020000
v 0.200000 0.020000 0.020000
v -0.020000 0.020000 -0.200000
v -0.020000 -0.020000 -0.200000
v 0.020000 -0.020000 -0.200000
v 0.020000 0.020000 -0.200000
v -0.200000 -0.200000 -0.200000
v -0.200000 -0.200000 0.200000
v -0.200000 0.200000 0.200000
v -0.200000 0.200000 -0.200000
v -0.020000 0.200000 0.020000
v -0.020000 0.200000 -0.020000
v 0.020000 0.200000 -0.020000
v 0.020000 0.200000 0.020000
v -0.020000 0.020000 -0.600000
v -0.020000 -0.020000 -0.600000
v 0.020000 -0.020000 -0.600000
v 0.020000 0.020000 -0.600000
v 0.600000 0.020000 -0.020000
v 0.600000 -0.020000 -0.020000
v 0.600000 -0.020000 0.020000
v 0.600000 0.020000 0.020000
v -0.020000 0.600000 0.020000
v -0.020000 0.600000 -0.020000
v 0.020000 0.600000 -0.020000
v 0.020000 0.600000 0.020000
vt 0.666667 0.333333
vt 0.666667 0.333333
vt 0.666667 0.333333
vt 0.666667 0.333333
vt 0.333333 0.666667
vt 0.000000 0.666667
vt 0.150000 0.516667
vt 0.183333 0.516667
vt 0.333333 0.333333
vt 0.333333 0.000000
vt 0.483333 0.150000
vt 0.483333 0.183333
vt 0.666667 0.333333
vt 0.666667 0.666667
vt 0.333333 0.666667
vt 0.333333 0.333333
vt 0.000000 0.000000
vt 0.333333 0.000000
vt 0.333333 0.333333
vt 0.000000 0.333333
vt 1.000000 0.000000
vt 1.000000 0.333333
vt 0.850000 0.183333
vt 0.850000 0.150000
vt 0.866667 0.333333
vt 0.900000 0.333333
vt 0.900000 0.666667
vt 0.866667 0.666667
vt 0.666667 0.000000
vt 0.516667 0.150000
vt 0.666667 0.333333
vt 0.516667 0.183333
vt 0.700000 0.666667
vt 0.666667 0.666667
vt 0.666667 0.333333
vt 0.700000 0.333333
vt 0.333333 0.333333
vt 0.183333 0.483333
vt 0.000000 0.333333
vt 0.150000 0.483333
vt 0.333333 0.666667
vt 0.333333 1.000000
vt 0.000000 1.000000
vt 0.000000 0.666667
vt 0.666667 0.333333
vt 0.666667 0.333333
vt 0.666667 0.333333
vt 0.666667 0.333333
vt 0.766667 0.333333
vt 0.800000 0.333333
vt 0.800000 0.666667
vt 0.766667 0.666667
vt 0.666667 0.333333
vt 0.816667 0.183333
vt 0.666667 0.000000
vt 0.816667 0.150000
vt 0.500000 0.666667
vt 0.500000 0.700000
vt 0.466667 0.700000
vt 0.466667 0.666667
vt 0.966667 0.666667
vt 0.933334 0.666667
vt 0.933334 0.333333
vt 0.966667 0.333333
vt 0.900000 0.333333
vt 0.933334 0.333333
vt 0.933334 0.666667
vt 0.900000 0.666667
vt 0.766667 0.666667
vt 0.733333 0.666667
vt 0.733333 0.333333
vt 0.766667 0.333333
vt 0.466667 0.666667
vt 0.466667 0.700000
vt 0.433333 0.700000
vt 0.433333 0.666667
vt 0.366667 1.000000
vt 0.333333 1.000000
vt 0.333333 0.666667
vt 0.366667 0.666667
vt 0.400000 1.000000
vt 0.400000 0.666667
vt 0.400000 0.666667
vt 0.433333 0.666667
vt 0.433333 1.000000
vt 0.400000 1.000000
vt 0.500000 0.666667
vt 0.533333 0.666667
vt 0.533333 0.700000
vt 0.500000 0.700000
vt 0.833334 0.333333
vt 0.866667 0.333333
vt 0.866667 0.666667
vt 0.833334 0.666667
vt 0.800000 0.333333
vt 0.833333 0.333333
vt 0.833333 0.666667
vt 0.800000 0.666667
vt 0.700000 0.333333
vt 0.733333 0.333333
vt 0.733333 0.666667
vt 0.700000 0.666667
vn 0.0000 0.0000 1.0000
vn 0.0000 0.0000 -1.0000
vn 1.0000 0.0000 0.0000
vn 0.0000 -1.0000 0.0000
vn 0.0000 1.0000 0.0000
vn -1.0000 0.0000 0.0000
usemtl Material.003
s off
f 2/1/1 4/2/1 20/3/1 19/4/1
f 4/5/2 8/6/2 16/7/2 13/8/2
f 6/9/3 5/10/3 11/11/3 12/12/3
f 5/13/1 6/14/1 2/15/1 1/16/1
f 3/17/4 7/18/4 5/19/4 1/20/4
f 4/21/5 2/22/5 21/23/5 22/24/5
f 11/25/4 10/26/4 30/27/4 31/28/4
f 5/10/3 7/29/3 10/30/3 11/11/3
f 8/31/3 6/9/3 12/12/3 9/32/3
f 7/29/3 8/31/3 9/32/3 10/30/3
f 13/33/5 16/34/5 28/35/5 25/36/5
f 3/37/2 4/5/2 13/8/2 14/38/2
f 8/6/2 7/39/2 15/40/2 16/7/2
f 7/39/2 3/37/2 14/38/2 15/40/2
f 18/41/6 19/42/6 20/43/6 17/44/6
f 3/45/1 1/46/1 18/47/1 17/48/1
f 4/2/1 3/45/1 17/48/1 20/3/1
f 1/46/1 2/1/1 19/4/1 18/47/1
f 24/49/3 23/50/3 35/51/3 36/52/3
f 2/22/5 6/53/5 24/54/5 21/23/5
f 8/55/5 4/21/5 22/24/5 23/56/5
f 6/53/5 8/55/5 23/56/5 24/54/5
f 26/57/2 25/58/2 28/59/2 27/60/2
f 14/61/6 13/62/6 25/63/6 26/64/6
f 16/65/3 15/66/3 27/67/3 28/68/3
f 15/69/4 14/70/4 26/71/4 27/72/4
f 30/73/3 29/74/3 32/75/3 31/76/3
f 9/77/5 12/78/5 32/79/5 29/80/5
f 10/81/2 9/77/2 29/80/2 30/82/2
f 12/83/1 11/84/1 31/85/1 32/86/1
f 35/87/5 34/88/5 33/89/5 36/90/5
f 22/91/6 21/92/6 33/93/6 34/94/6
f 21/95/1 24/96/1 36/97/1 33/98/1
f 23/99/2 22/100/2 34/101/2 35/102/2
