# Blender v2.91.2 OBJ File: 'final_scene.blend'
# www.blender.org
mtllib teren__.mtl
o Grid_Grid.001
v -64.924179 9.517895 53.005920
v -52.784096 22.183208 52.675999
v -38.184792 25.811598 53.014820
v -26.042906 23.499279 54.620132
v -15.616112 19.897308 54.508987
v -6.131217 14.570110 53.005314
v 6.138068 11.982547 52.014343
v 18.483398 10.052568 52.203888
v 30.442585 1.551071 53.240406
v 42.213539 -0.150000 52.994946
v -66.265015 20.207502 37.725700
v -53.272392 28.358292 37.310677
v -38.717247 30.223326 38.408833
v -26.435711 26.591370 40.246895
v -15.885260 18.203054 41.924961
v -5.909899 10.254456 41.023338
v 6.175778 8.635918 40.179241
v 18.279770 9.192983 40.260311
v 30.359192 8.792052 42.554569
v 42.202972 0.592291 41.341618
v -65.621658 19.299488 25.624306
v -54.095207 23.885357 24.371113
v -40.420200 24.041115 24.261541
v -26.736374 17.313269 24.595182
v -16.213413 3.731014 28.156025
v -4.900224 -0.093350 29.441299
v 6.883576 -0.150000 29.441637
v 18.660229 -0.150000 29.441637
v 30.178688 6.286654 30.293343
v 42.107609 2.256008 29.755917
v -64.281471 16.297554 15.783736
v -52.744953 16.662302 14.892028
v -40.063961 10.431111 14.174675
v -27.862110 5.784270 15.398473
v -16.560085 0.754434 17.300957
v -4.893077 -0.150000 17.664980
v 6.883576 -0.150000 17.664980
v 18.660229 -0.150000 17.664980
v 30.266476 5.336383 18.098871
v 42.040543 4.659369 18.111935
v -63.791424 14.864150 5.525355
v -52.011063 11.626964 5.599644
v -40.213531 1.301864 5.631969
v -28.432545 0.026719 5.816870
v -16.669735 -0.150000 5.888327
v -4.893077 -0.150000 5.888327
v 6.883576 -0.150000 5.888327
v 18.660229 -0.150000 5.888327
v 30.364933 3.245124 6.113773
v 42.023666 6.057385 6.423333
v -63.773502 14.465518 -5.903028
v -52.004158 11.475305 -5.879644
v -40.223110 0.799321 -5.888177
v -28.446388 -0.150000 -5.888330
v -16.669735 -0.150000 -5.888330
v -4.893077 -0.150000 -5.888330
v 6.883576 -0.150000 -5.888330
v 18.660229 -0.150000 -5.888330
v 30.354958 2.310558 -5.596277
v 41.958046 6.239868 -5.110357
v -63.982121 14.377909 -17.072470
v -52.247864 12.320029 -16.935490
v -40.269344 1.364508 -17.527248
v -28.446388 -0.150000 -17.664984
v -16.669735 -0.150000 -17.664984
v -4.893077 -0.150000 -17.664984
v 6.883576 -0.150000 -17.664984
v 18.660229 -0.150000 -17.664984
v 30.525745 2.931188 -17.183096
v 42.366314 4.681225 -16.919832
v -64.315468 11.563478 -27.781281
v -52.422707 11.346240 -27.740572
v -39.826576 3.774996 -28.810362
v -27.472878 3.134533 -29.002224
v -15.680919 3.390650 -29.160522
v -3.945842 3.631423 -29.314510
v 7.661330 3.109057 -29.396196
v 19.248516 2.865563 -29.444746
v 31.392040 6.039794 -29.131329
v 42.919197 4.262497 -28.811226
v -63.966415 7.189176 -40.240654
v -51.602596 11.280885 -40.102917
v -38.309895 11.265194 -40.053242
v -25.505278 10.534282 -39.870770
v -13.913359 9.821981 -40.434532
v -2.491781 9.386004 -40.877392
v 8.704276 7.458911 -41.098179
v 19.825531 5.748385 -41.220577
v 31.413143 6.191839 -41.329998
v 42.528004 1.703879 -41.165218
v -63.704662 3.949869 -52.884125
v -51.531055 8.715427 -52.586998
v -38.942722 9.046417 -52.191170
v -26.977772 5.490762 -52.283241
v -15.833576 2.839533 -52.745945
v -4.383936 1.883841 -52.917999
v 7.079852 0.653035 -52.981300
v 18.696911 0.020261 -52.994728
v 30.438137 -0.140524 -52.995003
v 42.213539 -0.150000 -52.994946
vt 0.000000 0.000000
vt 0.111111 0.000000
vt 0.111111 0.111111
vt 0.000000 0.111111
vt 0.222222 0.000000
vt 0.222222 0.111111
vt 0.333333 0.000000
vt 0.333333 0.111111
vt 0.444444 0.000000
vt 0.444444 0.111111
vt 0.555556 0.000000
vt 0.555556 0.111111
vt 0.666667 0.000000
vt 0.666667 0.111111
vt 0.777778 0.000000
vt 0.777778 0.111111
vt 0.888889 0.000000
vt 0.888889 0.111111
vt 1.000000 0.000000
vt 1.000000 0.111111
vt 0.111111 0.222222
vt 0.000000 0.222222
vt 0.222222 0.222222
vt 0.333333 0.222222
vt 0.444444 0.222222
vt 0.555556 0.222222
vt 0.666667 0.222222
vt 0.777778 0.222222
vt 0.888889 0.222222
vt 1.000000 0.222222
vt 0.111111 0.333333
vt 0.000000 0.333333
vt 0.222222 0.333333
vt 0.333333 0.333333
vt 0.444444 0.333333
vt 0.555556 0.333333
vt 0.666667 0.333333
vt 0.777778 0.333333
vt 0.888889 0.333333
vt 1.000000 0.333333
vt 0.111111 0.444444
vt 0.000000 0.444444
vt 0.222222 0.444444
vt 0.333333 0.444444
vt 0.444444 0.444444
vt 0.555556 0.444444
vt 0.666667 0.444444
vt 0.777778 0.444444
vt 0.888889 0.444444
vt 1.000000 0.444444
vt 0.111111 0.555556
vt 0.000000 0.555556
vt 0.222222 0.555556
vt 0.333333 0.555556
vt 0.444444 0.555556
vt 0.555556 0.555556
vt 0.666667 0.555556
vt 0.777778 0.555556
vt 0.888889 0.555556
vt 1.000000 0.555556
vt 0.111111 0.666667
vt 0.000000 0.666667
vt 0.222222 0.666667
vt 0.333333 0.666667
vt 0.444444 0.666667
vt 0.555556 0.666667
vt 0.666667 0.666667
vt 0.777778 0.666667
vt 0.888889 0.666667
vt 1.000000 0.666667
vt 0.111111 0.777778
vt 0.000000 0.777778
vt 0.222222 0.777778
vt 0.333333 0.777778
vt 0.444444 0.777778
vt 0.555556 0.777778
vt 0.666667 0.777778
vt 0.777778 0.777778
vt 0.888889 0.777778
vt 1.000000 0.777778
vt 0.111111 0.888889
vt 0.000000 0.888889
vt 0.222222 0.888889
vt 0.333333 0.888889
vt 0.444444 0.888889
vt 0.555556 0.888889
vt 0.666667 0.888889
vt 0.777778 0.888889
vt 0.888889 0.888889
vt 1.000000 0.888889
vt 0.111111 1.000000
vt 0.000000 1.000000
vt 0.222222 1.000000
vt 0.333333 1.000000
vt 0.444444 1.000000
vt 0.555556 1.000000
vt 0.666667 1.000000
vt 0.777778 1.000000
vt 0.888889 1.000000
vt 1.000000 1.000000
vn -0.5709 0.7044 0.4217
vn -0.4084 0.8247 0.3912
vn -0.3281 0.9439 0.0371
vn -0.5500 0.8208 0.1541
vn 0.0153 0.9571 0.2893
vn 0.0903 0.9934 -0.0702
vn 0.3656 0.9218 0.1292
vn 0.4530 0.8777 -0.1560
vn 0.5168 0.8527 -0.0765
vn 0.5721 0.7599 -0.3085
vn 0.3743 0.8929 -0.2502
vn 0.2857 0.8248 -0.4879
vn 0.1010 0.9650 -0.2421
vn 0.0526 0.8840 -0.4645
vn 0.1893 0.9808 0.0461
vn 0.0367 0.9551 -0.2940
vn 0.3513 0.8912 0.2870
vn 0.2674 0.9630 0.0332
vn 0.3839 0.8700 0.3093
vn 0.4266 0.8941 0.1361
vn -0.1700 0.8772 -0.4490
vn -0.3599 0.8739 -0.3266
vn 0.1831 0.7956 -0.5775
vn 0.5050 0.6482 -0.5699
vn 0.4843 0.7481 -0.4536
vn 0.1562 0.9118 -0.3798
vn 0.0042 0.9387 -0.3448
vn -0.1733 0.9422 -0.2868
vn 0.0154 0.9901 -0.1393
vn 0.3305 0.9437 0.0111
vn 0.1157 0.8308 -0.5444
vn -0.0780 0.9090 -0.4094
vn 0.3050 0.6816 -0.6651
vn 0.3693 0.7419 -0.5596
vn 0.2996 0.9197 -0.2537
vn 0.0638 0.9970 -0.0443
vn 0.0006 1.0000 -0.0006
vn -0.2064 0.9779 -0.0310
vn -0.1818 0.9831 -0.0223
vn 0.0546 0.9984 0.0157
vn 0.4065 0.8777 -0.2536
vn 0.1812 0.9685 -0.1704
vn 0.3800 0.8718 -0.3091
vn 0.1449 0.9570 -0.2513
vn 0.0717 0.9935 -0.0887
vn 0.0098 0.9999 -0.0098
vn 0.0000 1.0000 0.0000
vn -0.1502 0.9882 -0.0307
vn -0.2444 0.9686 -0.0461
vn -0.1838 0.9825 -0.0299
vn 0.4700 0.8826 0.0058
vn 0.2327 0.9725 0.0031
vn 0.4008 0.9161 0.0027
vn 0.0515 0.9987 -0.0032
vn 0.0019 1.0000 -0.0019
vn -0.1187 0.9929 -0.0034
vn -0.2454 0.9691 -0.0223
vn -0.2562 0.9659 -0.0372
vn 0.4075 0.9131 -0.0135
vn 0.1533 0.9854 -0.0742
vn 0.3841 0.9182 0.0966
vn 0.0477 0.9890 0.1401
vn -0.0041 0.9890 0.1481
vn 0.0033 0.9887 0.1495
vn 0.0084 0.9903 0.1387
vn -0.1164 0.9846 0.1299
vn -0.1849 0.9793 0.0822
vn -0.1185 0.9923 0.0343
vn 0.2213 0.9752 -0.0040
vn -0.0293 0.9833 -0.1793
vn 0.2677 0.9142 0.3043
vn 0.0391 0.9099 0.4128
vn 0.0095 0.9151 0.4030
vn 0.0335 0.9281 0.3706
vn 0.0552 0.9475 0.3149
vn -0.0789 0.9698 0.2305
vn -0.0296 0.9955 0.0895
vn 0.1347 0.9908 0.0072
vn -0.0484 0.9966 -0.0658
vn -0.2464 0.9481 -0.2006
vn 0.1271 0.9861 0.1065
vn 0.0981 0.9894 0.1072
vn 0.0568 0.9983 0.0086
vn 0.0797 0.9956 -0.0485
vn 0.1065 0.9908 -0.0827
vn -0.0002 0.9901 -0.1405
vn 0.0742 0.9781 -0.1943
vn 0.2268 0.9490 -0.2189
vn -0.1768 0.9622 -0.2069
vn -0.3280 0.9194 -0.2167
vn 0.0760 0.9673 -0.2417
vn 0.1379 0.9180 -0.3719
vn 0.0755 0.8734 -0.4811
vn 0.0731 0.8517 -0.5188
vn 0.1000 0.8605 -0.4996
vn 0.0396 0.8836 -0.4664
vn 0.0818 0.9128 -0.4000
vn 0.1841 0.9250 -0.3324
usemtl Material.006
s 1
f 1/1/1 2/2/2 12/3/3 11/4/4
f 2/2/2 3/5/5 13/6/6 12/3/3
f 3/5/5 4/7/7 14/8/8 13/6/6
f 4/7/7 5/9/9 15/10/10 14/8/8
f 5/9/9 6/11/11 16/12/12 15/10/10
f 6/11/11 7/13/13 17/14/14 16/12/12
f 7/13/13 8/15/15 18/16/16 17/14/14
f 8/15/15 9/17/17 19/18/18 18/16/16
f 9/17/17 10/19/19 20/20/20 19/18/18
f 11/4/4 12/3/3 22/21/21 21/22/22
f 12/3/3 13/6/6 23/23/23 22/21/21
f 13/6/6 14/8/8 24/24/24 23/23/23
f 14/8/8 15/10/10 25/25/25 24/24/24
f 15/10/10 16/12/12 26/26/26 25/25/25
f 16/12/12 17/14/14 27/27/27 26/26/26
f 17/14/14 18/16/16 28/28/28 27/27/27
f 18/16/16 19/18/18 29/29/29 28/28/28
f 19/18/18 20/20/20 30/30/30 29/29/29
f 21/22/22 22/21/21 32/31/31 31/32/32
f 22/21/21 23/23/23 33/33/33 32/31/31
f 23/23/23 24/24/24 34/34/34 33/33/33
f 24/24/24 25/25/25 35/35/35 34/34/34
f 25/25/25 26/26/26 36/36/36 35/35/35
f 26/26/26 27/27/27 37/37/37 36/36/36
f 27/27/27 28/28/28 38/38/38 37/37/37
f 28/28/28 29/29/29 39/39/39 38/38/38
f 29/29/29 30/30/30 40/40/40 39/39/39
f 31/32/32 32/31/31 42/41/41 41/42/42
f 32/31/31 33/33/33 43/43/43 42/41/41
f 33/33/33 34/34/34 44/44/44 43/43/43
f 34/34/34 35/35/35 45/45/45 44/44/44
f 35/35/35 36/36/36 46/46/46 45/45/45
f 36/36/36 37/37/37 47/47/47 46/46/46
f 37/37/37 38/38/38 48/48/48 47/47/47
f 38/38/38 39/39/39 49/49/49 48/48/48
f 39/39/39 40/40/40 50/50/50 49/49/49
f 41/42/42 42/41/41 52/51/51 51/52/52
f 42/41/41 43/43/43 53/53/53 52/51/51
f 43/43/43 44/44/44 54/54/54 53/53/53
f 44/44/44 45/45/45 55/55/55 54/54/54
f 45/45/45 46/46/46 56/56/47 55/55/55
f 46/46/46 47/47/47 57/57/47 56/56/47
f 47/47/47 48/48/48 58/58/56 57/57/47
f 48/48/48 49/49/49 59/59/57 58/58/56
f 49/49/49 50/50/50 60/60/58 59/59/57
f 51/52/52 52/51/51 62/61/59 61/62/60
f 52/51/51 53/53/53 63/63/61 62/61/59
f 53/53/53 54/54/54 64/64/62 63/63/61
f 54/54/54 55/55/55 65/65/63 64/64/62
f 55/55/55 56/56/47 66/66/64 65/65/63
f 56/56/47 57/57/47 67/67/65 66/66/64
f 57/57/47 58/58/56 68/68/66 67/67/65
f 58/58/56 59/59/57 69/69/67 68/68/66
f 59/59/57 60/60/58 70/70/68 69/69/67
f 61/62/60 62/61/59 72/71/69 71/72/70
f 62/61/59 63/63/61 73/73/71 72/71/69
f 63/63/61 64/64/62 74/74/72 73/73/71
f 64/64/62 65/65/63 75/75/73 74/74/72
f 65/65/63 66/66/64 76/76/74 75/75/73
f 66/66/64 67/67/65 77/77/75 76/76/74
f 67/67/65 68/68/66 78/78/76 77/77/75
f 68/68/66 69/69/67 79/79/77 78/78/76
f 69/69/67 70/70/68 80/80/78 79/79/77
f 71/72/70 72/71/69 82/81/79 81/82/80
f 72/71/69 73/73/71 83/83/81 82/81/79
f 73/73/71 74/74/72 84/84/82 83/83/81
f 74/74/72 75/75/73 85/85/83 84/84/82
f 75/75/73 76/76/74 86/86/84 85/85/83
f 76/76/74 77/77/75 87/87/85 86/86/84
f 77/77/75 78/78/76 88/88/86 87/87/85
f 78/78/76 79/79/77 89/89/87 88/88/86
f 79/79/77 80/80/78 90/90/88 89/89/87
f 81/82/80 82/81/79 92/91/89 91/92/90
f 82/81/79 83/83/81 93/93/91 92/91/89
f 83/83/81 84/84/82 94/94/92 93/93/91
f 84/84/82 85/85/83 95/95/93 94/94/92
f 85/85/83 86/86/84 96/96/94 95/95/93
f 86/86/84 87/87/85 97/97/95 96/96/94
f 87/87/85 88/88/86 98/98/96 97/97/95
f 88/88/86 89/89/87 99/99/97 98/98/96
f 89/89/87 90/90/88 100/100/98 99/99/97
