# Blender v2.91.2 OBJ File: 'final_scene.blend'
# www.blender.org
mtllib stul__.mtl
o Cube.001
v -2.659286 2.908441 2.547857
v -2.659286 3.331370 2.547857
v -2.659286 2.908441 -2.738574
v -2.659286 3.331370 -2.738574
v 2.627145 2.908441 2.547857
v 2.627145 3.331370 2.547857
v 2.627145 2.908441 -2.738574
v 2.627145 3.331370 -2.738574
v 2.342756 2.908441 -2.738574
v 2.342756 3.331370 -2.738574
v 2.342756 2.908441 2.547857
v 2.342756 3.331370 2.547857
v 2.080463 2.908441 -2.738574
v 2.080463 3.331370 2.547857
v 2.080463 3.331370 -2.738574
v 2.080463 2.908441 2.547857
v -2.355217 2.908441 -2.738574
v -2.355217 3.331370 2.547857
v -2.355217 3.331370 -2.738574
v -2.355217 2.908441 2.547857
v -2.068002 3.331370 -2.738574
v -2.068002 2.908441 2.547857
v -2.068002 2.908441 -2.738574
v -2.068002 3.331370 2.547857
v -2.659286 2.908441 -2.270150
v -2.659286 3.331370 -2.270150
v 2.627145 2.908441 -2.270150
v 2.627145 3.331370 -2.270150
v 2.342756 3.331370 -2.270150
v 2.342756 2.908441 -2.270150
v 2.080463 2.908441 -2.270150
v 2.080463 3.331370 -2.270150
v -2.355217 2.908441 -2.270150
v -2.355217 3.331370 -2.270150
v -2.068002 3.331370 -2.270150
v -2.068002 2.908441 -2.270150
v -2.659286 2.908441 -1.826531
v 2.627145 3.331370 -1.826531
v 2.342756 3.331370 -1.826531
v 2.342756 2.908441 -1.826531
v 2.080463 2.908441 -1.826531
v 2.080463 3.331370 -1.826531
v -2.355217 2.908441 -1.826531
v -2.355217 3.331370 -1.826531
v -2.068002 3.331370 -1.826531
v -2.068002 2.908441 -1.826531
v -2.659286 3.331370 -1.826531
v 2.627145 2.908441 -1.826531
v -2.659286 2.908441 2.220006
v 2.627145 3.331370 2.220006
v 2.342756 3.331370 2.220006
v 2.342756 2.908441 2.220006
v 2.080463 2.908441 2.220006
v 2.080463 3.331370 2.220006
v -2.355217 2.908441 2.220006
v -2.355217 3.331370 2.220006
v -2.068002 3.331370 2.220006
v -2.068002 2.908441 2.220006
v -2.659286 3.331370 2.220006
v 2.627145 2.908441 2.220006
v -2.659286 3.331370 1.876675
v 2.627145 2.908441 1.876675
v -2.659286 2.908441 1.876675
v 2.627145 3.331370 1.876675
v 2.342756 3.331370 1.876675
v 2.342756 2.908441 1.876675
v 2.080463 2.908441 1.876675
v 2.080463 3.331370 1.876675
v -2.355217 2.908441 1.876675
v -2.355217 3.331370 1.876675
v -2.068002 3.331370 1.876675
v -2.068002 2.908441 1.876675
v -2.068002 0.000003 -2.270150
v -2.355217 0.000003 -2.270150
v 2.342756 0.000003 -2.270150
v 2.080463 0.000003 -2.270150
v 2.342756 0.000003 -1.826531
v 2.080463 0.000003 -1.826531
v -2.355217 0.000003 -1.826531
v -2.068002 0.000003 -1.826531
v 2.342756 0.000003 1.876675
v 2.342756 0.000003 2.220006
v 2.080463 0.000003 1.876675
v 2.080463 0.000003 2.220006
v -2.355217 0.000003 1.876675
v -2.355217 0.000003 2.220006
v -2.068002 0.000003 1.876675
v -2.068002 0.000003 2.220006
vt 0.524047 1.000000
vt 0.524047 0.931032
vt 0.574997 0.931032
vt 0.574997 1.000000
vt 0.720362 0.946204
vt 0.773723 0.946204
vt 0.773723 1.000000
vt 0.720362 1.000000
vt 0.035660 0.000000
vt 0.035660 0.068968
vt 0.000000 0.068968
vt 0.000000 0.000000
vt 0.053362 0.057519
vt 0.000000 0.057519
vt 0.000000 0.000000
vt 0.053362 0.000000
vt 0.011535 0.330781
vt 0.010552 0.341271
vt 0.003195 0.342519
vt 0.002473 0.332952
vt 0.035660 0.881447
vt 0.035660 0.931032
vt 0.000000 0.931032
vt 0.000000 0.881448
vt 0.035660 0.115343
vt 0.000000 0.115343
vt 0.010976 0.323715
vt 0.000000 0.323232
vt 0.053362 1.000000
vt 0.000000 1.000000
vt 0.000000 0.946204
vt 0.053362 0.946204
vt 0.720362 0.896588
vt 0.773723 0.896588
vt 0.720361 0.111849
vt 0.773723 0.111849
vt 0.011218 0.061777
vt 0.000426 0.062258
vt 0.035660 0.158116
vt 0.000000 0.158116
vt 0.000000 0.896588
vt 0.053362 0.896588
vt 0.010649 0.042974
vt 0.011781 0.054268
vt 0.003013 0.052168
vt 0.003487 0.042209
vt 0.720361 0.000000
vt 0.773723 0.000000
vt 0.773723 0.057519
vt 0.720361 0.057519
vt 0.035660 0.834611
vt 0.000000 0.834611
vt 0.053362 0.111849
vt 0.000000 0.111849
vt 0.202270 0.027267
vt 0.205081 0.050748
vt 0.183692 0.054428
vt 0.180835 0.042592
vt 0.574996 0.158116
vt 0.574997 0.834611
vt 0.524047 0.834611
vt 0.524047 0.158116
vt 0.574997 0.881447
vt 0.524047 0.881447
vt 0.194836 0.000000
vt 0.176291 0.026367
vt 0.574996 0.115344
vt 0.524047 0.115344
vt 0.205081 0.335920
vt 0.183440 0.331705
vt 0.202437 0.358621
vt 0.180514 0.342683
vt 0.574996 0.068968
vt 0.524047 0.068968
vt 0.195100 0.385143
vt 0.176077 0.357796
vt 0.574997 0.000001
vt 0.524047 0.000001
vt 0.475795 1.000000
vt 0.475795 0.931032
vt 0.073004 1.000000
vt 0.073004 0.931032
vt 0.572823 0.036881
vt 0.641759 0.036881
vt 0.641759 0.912397
vt 0.572824 0.912397
vt 0.475795 0.834611
vt 0.475795 0.158116
vt 0.475795 0.881447
vt 0.173670 0.046670
vt 0.170608 0.032935
vt 0.475795 0.115344
vt 0.173812 0.328598
vt 0.173938 0.057526
vt 0.376273 0.034496
vt 0.435790 0.034496
vt 0.435790 0.938086
vt 0.376273 0.938086
vt 0.475795 0.068968
vt 0.170818 0.351215
vt 0.173679 0.338630
vt 0.475795 0.000001
vt 0.000000 1.000000
vt 0.035660 1.000000
vt 0.451223 0.036881
vt 0.520159 0.036881
vt 0.520159 0.912397
vt 0.451223 0.912397
vt 0.073004 0.158116
vt 0.073004 0.834611
vt 0.073004 0.881448
vt 0.017484 0.039329
vt 0.017227 0.053547
vt 0.073004 0.115343
vt 0.017801 0.061959
vt 0.017506 0.323684
vt 0.398559 0.036881
vt 0.398558 0.912397
vt 0.073004 0.068968
vt 0.016848 0.331437
vt 0.017126 0.344626
vt 0.073004 0.000000
vt 0.178417 0.048695
vt 0.178432 0.048696
vt 0.178152 0.048774
vt 0.178187 0.048792
vt 0.178314 0.337544
vt 0.178295 0.337509
vt 0.178070 0.337405
vt 0.178019 0.337463
vt 0.014672 0.057524
vt 0.014675 0.057566
vt 0.014579 0.057566
vt 0.014584 0.057529
vt 0.014411 0.327969
vt 0.014406 0.327982
vt 0.014314 0.327976
vt 0.014307 0.327969
vt 0.527718 0.034496
vt 0.527718 0.938086
vt 0.505264 0.060579
vt 0.562996 0.060579
vt 0.562996 0.937059
vt 0.505264 0.937059
vt 0.632007 0.060579
vt 0.632008 0.937059
vt 0.592414 0.963483
vt 0.535278 0.963483
vt 0.535278 0.013630
vt 0.592414 0.013630
vt 0.587236 0.034496
vt 0.679164 0.034496
vt 0.679164 0.938086
vt 0.587236 0.938086
vt 0.438643 0.963483
vt 0.438643 0.013630
vt 0.689739 0.060579
vt 0.689740 0.937059
vt 0.436253 0.060579
vt 0.436253 0.937059
vt 0.689049 0.963483
vt 0.689049 0.013630
vt 0.381507 0.963483
vt 0.381507 0.013630
vn -1.0000 0.0000 0.0000
vn 0.0000 0.0000 -1.0000
vn 1.0000 0.0000 0.0000
vn 0.0000 0.0000 1.0000
vn 0.0000 -1.0000 0.0000
vn 0.0000 1.0000 0.0000
usemtl Material.002
s off
f 25/1/1 26/2/1 4/3/1 3/4/1
f 9/5/2 10/6/2 8/7/2 7/8/2
f 60/9/3 50/10/3 6/11/3 5/12/3
f 20/13/4 18/14/4 2/15/4 1/16/4
f 52/17/5 60/18/5 5/19/5 11/20/5
f 56/21/6 59/22/6 2/23/6 18/24/6
f 50/10/6 51/25/6 12/26/6 6/11/6
f 53/27/5 52/17/5 11/20/5 16/28/5
f 5/29/4 6/30/4 12/31/4 11/32/4
f 13/33/2 15/34/2 10/6/2 9/5/2
f 23/35/2 21/36/2 15/34/2 13/33/2
f 58/37/5 53/27/5 16/28/5 22/38/5
f 51/25/6 54/39/6 14/40/6 12/26/6
f 11/32/4 12/31/4 14/41/4 16/42/4
f 49/43/5 55/44/5 20/45/5 1/46/5
f 3/47/2 4/48/2 19/49/2 17/50/2
f 57/51/6 56/21/6 18/24/6 24/52/6
f 22/53/4 24/54/4 18/14/4 20/13/4
f 16/42/4 14/41/4 24/54/4 22/53/4
f 54/39/6 57/51/6 24/52/6 14/40/6
f 55/44/5 58/37/5 22/38/5 20/45/5
f 17/50/2 19/49/2 21/36/2 23/35/2
f 17/55/5 23/56/5 36/57/5 33/58/5
f 15/59/6 21/60/6 35/61/6 32/62/6
f 21/60/6 19/63/6 34/64/6 35/61/6
f 3/65/5 17/55/5 33/58/5 25/66/5
f 10/67/6 15/59/6 32/62/6 29/68/6
f 23/56/5 13/69/5 31/70/5 36/57/5
f 13/69/5 9/71/5 30/72/5 31/70/5
f 8/73/6 10/67/6 29/68/6 28/74/6
f 19/63/6 4/3/6 26/2/6 34/64/6
f 9/71/5 7/75/5 27/76/5 30/72/5
f 7/77/3 8/73/3 28/74/3 27/78/3
f 37/79/1 47/80/1 26/2/1 25/1/1
f 63/81/1 61/82/1 47/80/1 37/79/1
f 53/83/1 67/84/1 83/85/1 84/86/1
f 32/62/6 35/61/6 45/87/6 42/88/6
f 35/61/6 34/64/6 44/89/6 45/87/6
f 25/66/5 33/58/5 43/90/5 37/91/5
f 29/68/6 32/62/6 42/88/6 39/92/6
f 36/57/5 31/70/5 41/93/5 46/94/5
f 46/95/4 43/96/4 79/97/4 80/98/4
f 28/74/6 29/68/6 39/92/6 38/99/6
f 34/64/6 26/2/6 47/80/6 44/89/6
f 30/72/5 27/76/5 48/100/5 40/101/5
f 27/78/3 28/74/3 38/99/3 48/102/3
f 1/103/1 2/23/1 59/22/1 49/104/1
f 66/105/3 52/106/3 82/107/3 81/108/3
f 68/109/6 71/110/6 57/51/6 54/39/6
f 71/110/6 70/111/6 56/21/6 57/51/6
f 63/112/5 69/113/5 55/44/5 49/43/5
f 65/114/6 68/109/6 54/39/6 51/25/6
f 72/115/5 67/116/5 53/27/5 58/37/5
f 67/117/2 66/105/2 81/108/2 83/118/2
f 64/119/6 65/114/6 51/25/6 50/10/6
f 70/111/6 61/82/6 59/22/6 56/21/6
f 66/120/5 62/121/5 60/18/5 52/17/5
f 62/122/3 64/119/3 50/10/3 60/9/3
f 48/102/3 38/99/3 64/119/3 62/122/3
f 40/101/5 48/100/5 62/121/5 66/120/5
f 44/89/6 47/80/6 61/82/6 70/111/6
f 38/99/6 39/92/6 65/114/6 64/119/6
f 41/93/5 40/101/5 66/120/5 67/116/5
f 46/94/5 41/93/5 67/116/5 72/115/5
f 39/92/6 42/88/6 68/109/6 65/114/6
f 37/91/5 43/90/5 69/113/5 63/112/5
f 45/87/6 44/89/6 70/111/6 71/110/6
f 42/88/6 45/87/6 71/110/6 68/109/6
f 43/90/5 46/94/5 72/115/5 69/113/5
f 49/104/1 59/22/1 61/82/1 63/81/1
f 74/123/5 73/124/5 80/125/5 79/126/5
f 76/127/5 75/128/5 77/129/5 78/130/5
f 85/131/5 87/132/5 88/133/5 86/134/5
f 83/135/5 81/136/5 82/137/5 84/138/5
f 52/106/4 53/83/4 84/86/4 82/107/4
f 43/96/1 33/139/1 74/140/1 79/97/1
f 58/141/4 55/142/4 86/143/4 88/144/4
f 55/142/1 69/145/1 85/146/1 86/143/1
f 31/147/2 30/148/2 75/149/2 76/150/2
f 36/151/3 46/152/3 80/153/3 73/154/3
f 33/139/2 36/151/2 73/154/2 74/140/2
f 30/148/3 40/155/3 77/156/3 75/149/3
f 69/145/2 72/157/2 87/158/2 85/146/2
f 72/159/3 58/141/3 88/144/3 87/160/3
f 41/161/1 31/147/1 76/150/1 78/162/1
f 40/155/4 41/163/4 78/164/4 77/156/4
